<svg xmlns="http://www.w3.org/2000/svg" viewBox="0 0 1200 800"><rect width="1200" height="800" fill="#061019"/><text x="70" y="90" fill="#36def6" font-family="Arial" font-size="22" font-weight="700" letter-spacing="6">ADAPT PRODUCT ECOSYSTEM</text><text x="70" y="160" fill="#eef9ff" font-family="Arial" font-size="54" font-weight="800">One connected fitness system.</text><g font-family="Arial" font-weight="700" text-anchor="middle"><g fill="#0b1c27" stroke="#36def6" stroke-width="2"><rect x="70" y="245" rx="24" width="235" height="140"/><rect x="340" y="245" rx="24" width="235" height="140"/><rect x="610" y="245" rx="24" width="235" height="140"/><rect x="880" y="245" rx="24" width="235" height="140"/><rect x="205" y="445" rx="24" width="235" height="140"/><rect x="475" y="445" rx="24" width="235" height="140"/><rect x="745" y="445" rx="24" width="235" height="140"/></g><g fill="#eef9ff" font-size="25"><text x="188" y="310">AURA</text><text x="458" y="310">BODYSCAN</text><text x="728" y="310">MOVE</text><text x="998" y="310">RECOVERY</text><text x="323" y="510">INJURY SHIELD</text><text x="593" y="510">PROGRESS</text><text x="863" y="510">SQUADS + FAMILY</text></g><g fill="#8fa8b8" font-size="15"><text x="188" y="345">AI COACHING</text><text x="458" y="345">MOVEMENT ANALYSIS</text><text x="728" y="345">MOBILITY + YOGA</text><text x="998" y="345">READINESS</text><text x="323" y="545">WORKLOAD AWARENESS</text><text x="593" y="545">TRENDS + HISTORY</text><text x="863" y="545">CONNECTED TRAINING</text></g></g><text x="70" y="700" fill="#9869ff" font-family="Arial" font-size="20" letter-spacing="4">ASSESS → UNDERSTAND → ADAPT → TRAIN → MEASURE → REPEAT</text></svg>